{
  "asset": {
    "generator": "gltfeditor.com",
    "version": "2.0"
  },
  "buffers": [
    {
      "byteLength": 0
    },
    {
      "uri": "scutoidModel.bin",
      "byteLength": 172232
    }
  ],
  "bufferViews": [
    {
      "buffer": 1,
      "byteOffset": 13252,
      "byteLength": 158976,
      "target": 34962,
      "byteStride": 24
    },
    {
      "buffer": 1,
      "byteOffset": 0,
      "byteLength": 13248,
      "target": 34963
    }
  ],
  "accessors": [
    {
      "bufferView": 0,
      "byteOffset": 0,
      "componentType": 5126,
      "normalized": false,
      "count": 6624,
      "max": [
        -1.3410644328359922e-7,
        24.812999725341797,
        60
      ],
      "min": [
        -40.722999572753906,
        -23.511402130126953,
        6.030359145370312e-8
      ],
      "type": "VEC3"
    },
    {
      "bufferView": 0,
      "byteOffset": 12,
      "componentType": 5126,
      "normalized": false,
      "count": 6624,
      "max": [
        0.9994956851005554,
        1.0000044107437134,
        0.9999999403953552
      ],
      "min": [
        -0.9999110102653503,
        -1.0000044107437134,
        -0.8659650683403015
      ],
      "type": "VEC3"
    },
    {
      "bufferView": 1,
      "byteOffset": 0,
      "componentType": 5123,
      "normalized": false,
      "count": 6624,
      "max": [
        6623
      ],
      "min": [
        0
      ],
      "type": "SCALAR"
    }
  ],
  "scene": 0,
  "scenes": [
    {
      "nodes": [
        0
      ],
      "name": "scutoidModel"
    }
  ],
  "nodes": [
    {
      "name": "\"scutoid_single\"",
      "matrix": [
        1,
        0,
        0,
        0,
        0,
        3.422854177870249e-8,
        -0.9999999403953552,
        0,
        0,
        0.9999999403953552,
        3.422854177870249e-8,
        0,
        19.25848388671875,
        -18.660938262939453,
        3.881195311805641e-7,
        1
      ],
      "mesh": 0
    }
  ],
  "meshes": [
    {
      "primitives": [
        {
          "material": 0,
          "mode": 4,
          "attributes": {
            "POSITION": 0,
            "NORMAL": 1
          },
          "indices": 2
        }
      ]
    }
  ],
  "materials": [
    {
      "pbrMetallicRoughness": {
        "baseColorFactor": [
          1,
          1,
          1,
          1
        ],
        "metallicFactor": 1,
        "roughnessFactor": 1
      },
      "emissiveFactor": [
        0,
        0,
        0
      ],
      "alphaMode": "OPAQUE",
      "doubleSided": false
    }
  ]
}